<?xml version="1.0" encoding="utf-8"?>
<svg version="1.1" id="Icons" xmlns="http://www.w3.org/2000/svg" xmlns:xlink="http://www.w3.org/1999/xlink" viewBox="0 0 400 50" xml:space="preserve">
<line class="st1" x1="10" y1="25" x2="10" y2="18" style="stroke: #00ced1; stroke-width: 2"/>
<line class="st1" x1="20" y1="25" x2="20" y2="18" style="stroke: #00ced1; stroke-width: 2"/>
<line class="st1" x1="30" y1="25" x2="30" y2="18" style="stroke: #00ced1; stroke-width: 2"/>
<line class="st1" x1="40" y1="25" x2="40" y2="35" style="stroke: #00ced1; stroke-width: 2"/>
<line class="st1" x1="50" y1="25" x2="50" y2="21" style="stroke: #00ced1; stroke-width: 2"/>
<line class="st1" x1="60" y1="25" x2="60" y2="18" style="stroke: #00ced1; stroke-width: 2"/>
<line class="st1" x1="70" y1="25" x2="70" y2="21" style="stroke: #00ced1; stroke-width: 2"/>
<line class="st1" x1="80" y1="25" x2="80" y2="16" style="stroke: #00ced1; stroke-width: 2"/>
<line class="st1" x1="90" y1="25" x2="90" y2="17" style="stroke: #00ced1; stroke-width: 2"/>
<line class="st1" x1="100" y1="25" x2="100" y2="35" style="stroke: #00ced1; stroke-width: 2"/>
<line class="st1" x1="110" y1="25" x2="110" y2="21" style="stroke: #00ced1; stroke-width: 2"/>
<line class="st1" x1="120" y1="25" x2="120" y2="23" style="stroke: #00ced1; stroke-width: 2"/>
<line class="st1" x1="130" y1="25" x2="130" y2="35" style="stroke: #00ced1; stroke-width: 2"/>
<line class="st1" x1="140" y1="25" x2="140" y2="35" style="stroke: #00ced1; stroke-width: 2"/>
<line class="st1" x1="150" y1="25" x2="150" y2="35" style="stroke: #00ced1; stroke-width: 2"/>
<line class="st1" x1="160" y1="25" x2="160" y2="21" style="stroke: #00ced1; stroke-width: 2"/>
<line class="st1" x1="170" y1="25" x2="170" y2="21" style="stroke: #00ced1; stroke-width: 2"/>
<line class="st1" x1="180" y1="25" x2="180" y2="16" style="stroke: #00ced1; stroke-width: 2"/>
<line class="st1" x1="190" y1="25" x2="190" y2="35" style="stroke: #00ced1; stroke-width: 2"/>
<line class="st1" x1="200" y1="25" x2="200" y2="35" style="stroke: #00ced1; stroke-width: 2"/>
<line class="st1" x1="210" y1="25" x2="210" y2="21" style="stroke: #00ced1; stroke-width: 2"/>
<line class="st1" x1="220" y1="25" x2="220" y2="35" style="stroke: #00ced1; stroke-width: 2"/>
<line class="st1" x1="230" y1="25" x2="230" y2="35" style="stroke: #00ced1; stroke-width: 2"/>
<line class="st1" x1="240" y1="25" x2="240" y2="17" style="stroke: #00ced1; stroke-width: 2"/>
<line class="st1" x1="250" y1="25" x2="250" y2="24" style="stroke: #00ced1; stroke-width: 2"/>
<line class="st1" x1="260" y1="25" x2="260" y2="25" style="stroke: #00ced1; stroke-width: 2"/>
<line class="st1" x1="270" y1="25" x2="270" y2="17" style="stroke: #00ced1; stroke-width: 2"/>
<line class="st1" x1="280" y1="25" x2="280" y2="18" style="stroke: #00ced1; stroke-width: 2"/>
<line class="st1" x1="290" y1="25" x2="290" y2="24" style="stroke: #00ced1; stroke-width: 2"/>
<line class="st1" x1="300" y1="25" x2="300" y2="35" style="stroke: #00ced1; stroke-width: 2"/>
<line class="st1" x1="310" y1="25" x2="310" y2="21" style="stroke: #00ced1; stroke-width: 2"/>
<line class="st1" x1="320" y1="25" x2="320" y2="19" style="stroke: #00ced1; stroke-width: 2"/>
<line class="st1" x1="330" y1="25" x2="330" y2="35" style="stroke: #00ced1; stroke-width: 2"/>
<line class="st1" x1="340" y1="25" x2="340" y2="35" style="stroke: #00ced1; stroke-width: 2"/>
<line class="st1" x1="350" y1="25" x2="350" y2="18" style="stroke: #00ced1; stroke-width: 2"/>
<line class="st1" x1="360" y1="25" x2="360" y2="18" style="stroke: #00ced1; stroke-width: 2"/>
<line class="st1" x1="370" y1="25" x2="370" y2="18" style="stroke: #00ced1; stroke-width: 2"/>
<line class="st1" x1="380" y1="25" x2="380" y2="18" style="stroke: #00ced1; stroke-width: 2"/>
<line class="st1" x1="390" y1="25" x2="390" y2="18" style="stroke: #00ced1; stroke-width: 2"/>
<line class="st1" x1="400" y1="25" x2="400" y2="18" style="stroke: #00ced1; stroke-width: 2"/>
</svg>